# xmcd
#
# Track frame offsets:
#	150
#	12950
#	24212
#	38805
#	48521
#	61313
#	69668
#	86504
#	103022
#	113032
#	124470
#	134821
#
# Disc length: 1943 seconds
#
# Revision: 0
# Processed by: cddbd v1.5.2PL0 Copyright (c) Steve Scherf et al.
# Submitted via: dBpowerAMP V4.0
#
DISCID=a507950c
DTITLE=Os Gaudérios - Os Gaudérios
DYEAR=1900
DGENRE=
TTITLE0=NegrinhoDoPastoreio
TTITLE1=Boi-Tatá
TTITLE2=Amargo
TTITLE3=Querência
TTITLE4=O Tatú
TTITLE5=Felicidade
TTITLE6=OsHomensDePreto
TTITLE7=RanchoDoCéu
TTITLE8=GaitaVelha
TTITLE9=Carreteiro
TTITLE10=Carreta
TTITLE11=PasseandoNoPago
EXTD=
EXTT0=
EXTT1=
EXTT2=
EXTT3=
EXTT4=
EXTT5=
EXTT6=
EXTT7=
EXTT8=
EXTT9=
EXTT10=
EXTT11=
PLAYORDER=
